#define cursor_bitmap_width 30
#define cursor_bitmap_height 30
#define cursor_bitmap_x_hot 17
#define cursor_bitmap_y_hot 12
static unsigned char cursor_bitmap_bits[] = {
   0x00, 0x00, 0x00, 0x20, 0x00, 0x00, 0x00, 0x10, 0x00, 0x00, 0x04, 0x08,
   0x00, 0x00, 0x04, 0x04, 0x00, 0x00, 0x04, 0x02, 0x00, 0x00, 0x04, 0x01,
   0x00, 0x00, 0x84, 0x00, 0x00, 0x00, 0x44, 0x00, 0x00, 0x00, 0x24, 0x00,
   0x00, 0x00, 0x14, 0x00, 0x00, 0x00, 0x0c, 0x00, 0x00, 0x00, 0xfc, 0x0f,
   0x00, 0xff, 0x03, 0x00, 0x00, 0x00, 0x03, 0x00, 0x00, 0x80, 0x02, 0x00,
   0x00, 0x40, 0x02, 0x00, 0x00, 0x20, 0x02, 0x00, 0x00, 0x10, 0x02, 0x00,
   0x00, 0x08, 0x02, 0x00, 0x00, 0x04, 0x02, 0x00, 0x00, 0x02, 0x02, 0x00,
   0x00, 0x01, 0x02, 0x00, 0x80, 0x00, 0x00, 0x00, 0x40, 0x00, 0x00, 0x00,
   0x20, 0x00, 0x00, 0x00, 0x10, 0x00, 0x00, 0x00, 0x08, 0x00, 0x00, 0x00,
   0x04, 0x00, 0x00, 0x00, 0x02, 0x00, 0x00, 0x00, 0x01, 0x00, 0x00, 0x00 };
