#define background_bitmap_width 10
#define background_bitmap_height 10
static unsigned char background_bitmap_bits[] = {
   0x01, 0x02, 0x02, 0x01, 0x84, 0x00, 0x48, 0x00, 0x30, 0x00, 0x30, 0x00,
   0x48, 0x00, 0x84, 0x00, 0x02, 0x01, 0x01, 0x02 };
