/* XPM */
static char *__x___xsane[] = {
/* columns rows colors chars-per-pixel */
"24 24 104 2",
"   c #272C25091ED8",
".  c #2D782AC2242C",
"X  c #3BA736C32A8C",
"o  c #3C4239C62CDB",
"O  c #40E33CDE2F7E",
"+  c #434A3E892FC6",
"@  c #47C6426D35CD",
"#  c #4A9645693624",
"$  c #43E4411838B6",
"%  c #49F6478E3F3F",
"&  c #4E83499C391C",
"*  c #53E44DCA3D7E",
"=  c #5A2A55943FAC",
"-  c #21C2228B5714",
";  c #43F0429A4712",
":  c #5A97554342D3",
">  c #5F0A589C4225",
",  c #620F5B7645ED",
"<  c #63565D78488F",
"1  c #6B4864224D74",
"2  c #6F0F68014D82",
"3  c #6FC769C254C1",
"4  c #73586B85523F",
"5  c #75697014550A",
"6  c #7B0A730356DE",
"7  c #7C7474945A43",
"8  c #4FD94DAF77FB",
"9  c #5DDB5ADA7ED5",
"0  c #81CC7A735E50",
"q  c #888E7F7B62C1",
"w  c #8A7A829C6463",
"e  c #8FC687F86BAE",
"r  c #90D5853166DC",
"t  c #94348BF66C16",
"y  c #99D58ED96E39",
"u  c #99BD91C36E81",
"i  c #93088A107A6B",
"p  c #9CD492FB7235",
"a  c #9E6797F07A51",
"s  c #A09C96F07442",
"d  c #A41999C176D1",
"f  c #A66A9C157A13",
"g  c #AC94A2C27DE4",
"h  c #7EB579A4883F",
"j  c #6B606C619BEB",
"k  c #4D564DD7A52D",
"l  c #6969671CA3D1",
"z  c #7624747DA54E",
"x  c #79687635AD42",
"c  c #31933B79D4F5",
"v  c #274E3232F633",
"b  c #3C2C4B18F4A5",
"n  c #352B4221FAD9",
"m  c #3A4B469EFD6F",
"M  c #503D572DC1DA",
"N  c #43324BCAD9B3",
"B  c #7BB17BFCC26C",
"V  c #71B474A0C89E",
"C  c #536C5D5BEBDA",
"Z  c #45865121FA09",
"A  c #47F658D4FE7D",
"S  c #58B466F5FE1B",
"D  c #5D956EEFFFFF",
"F  c #70BD7E94FC93",
"G  c #82BC7C0483AA",
"H  c #98B992F38655",
"J  c #9AFB93FB8B3C",
"K  c #A0BB9E1B99E2",
"L  c #A5F7A03586AE",
"P  c #AF78A54B819F",
"I  c #AE0CA358882B",
"U  c #B214A6FC8197",
"Y  c #B59BAA3A84D3",
"T  c #BA2FAE708748",
"R  c #B6F7ADCC8B5C",
"E  c #BAA6AF918912",
"W  c #BD8FB2C08BB4",
"Q  c #ACDFA94D943B",
"!  c #B007A7509D8E",
"~  c #BEA1B632949B",
"^  c #BC46B90DAF82",
"/  c #C1AFB6288E70",
"(  c #C2D7B75B907A",
")  c #C5D3BB1B937C",
"_  c #C960BE559658",
"`  c #C457BC029C24",
"'  c #C964BED599F6",
"]  c #CD81C3199C30",
"[  c #D071C6359F70",
"{  c #CD9CC4E7A0D1",
"}  c #D1C0C769A2DD",
"|  c #D431CB72A4B6",
" . c #D51ACCC7ABD3",
".. c #D846D1B3AF8A",
"X. c #DB60D36AAF2D",
"o. c #DD43D479B3A2",
"O. c #E551DEEFBDEE",
"+. c #92B4A0EBFE06",
"@. c #9D6DAD93FE87",
"#. c #B044BD5CFC20",
"$. c #B99EC46FFBC5",
"%. c #C921D2CCFA4C",
"&. c #F670F89CF79A",
"*. c None",
/* pixels */
"*.*.*.*.*.*.*.*.*.*.*.*.*.*.*.*.*.*.*.*.*.*.*.*.",
"*.*.*.*.*.o.{  .} ] ] [ ] ] ) ] _ ) *.*.*.*.*.*.",
"*.*.*.O. .} ] E W _ ) / T ) ) ( E / ) / U *.*.*.",
"*.*.o.] ) ) ) W W W / / T / ) _ W ) / _ W p 4 *.",
"*.O.| ~ / W ( / U y 6 4 1 1 7 u Y W / W ( U 0 *.",
"*.O._ ) / W p 4 & *.*.*.*.*.*.*.y Y ( ) ( ) g O ",
"*.o./ E _ f . *.*.*.*.*.*.*.*.*.*.O.[ ( / W / # ",
"*.X._ T / T 7 *.*.*.*.*.*.*.*.*.R W E ) / T Y X ",
"*.O.{ W / ( E q *.*.*.*.*.*.*.*.*.*.6 p Y ) s *.",
"*.*.} ) ( ( ) d 4 *.*.*.*.*.*.*.*.*.*.*.r g 1 *.",
"*.*._ ) ( P 1 # *.*.*.o.' ] ] *.{ ' ( *.*.7 O *.",
"*.*.*.T e @ *.Q ..' ~ R Y W W W g u W / g *.*.*.",
"*.*.*.*.*.*.*.a 5 : < 1 , 1 1 w t 4 7 ] ) t *.*.",
"*.*.*.*.*.*.*.*.*.*.I h l i g *.*.*.*.*.] ( w *.",
"*.*.*.*.*.*.*.*.*.! k c b N z : *.*.*.*.| ] p *.",
"*.*.*.*.*.*.*.*...9 v D @.S C H *.*.*.*.o./ W > ",
"*.*.*.` 7 *.*.*.T - b $.&.#.S ^ 7 *.*.*.o.) ( 4 ",
"*.*. .3 *.*.*.*./ k n +.%.F m Q *.*.*.*.o.) E & ",
"*.O.) : *.*.*.*.*.J k b A m V % *.*.*.X.] ] p   ",
"*.| ' g I *.*.*.*.*.H x x l ; % *.o.} ) ( g * *.",
"*.*.W U W ` ] W ( | [ ] U ~ L o.} ) ] ) f > *.*.",
"*.*.s d P W ) ) E ) ] ] W ) ] _ ) U f 0 o *.*.*.",
"*.*.*.*.*.u w d Y U E ( ) W P d 0 = : *.*.*.*.*.",
"*.*.*.*.*.*.*.*., : , 1 1 , # X *.*.*.*.*.*.*.*."
};
