/* XPM */
static char *__x___mplayer[] = {
/* columns rows colors chars-per-pixel */
"24 24 193 2",
"   c #10F110F210E8",
".  c #128312811286",
"X  c #3A5E3A6A3A25",
"o  c #25D51A7F55A9",
"O  c #2B581F3A5E94",
"+  c #2F80269952BD",
"@  c #3A1031A85DDD",
"#  c #2D9A2068656D",
"$  c #314323646BB5",
"%  c #330A24996F9D",
"&  c #3F7E353A6CA5",
"*  c #335F247F7196",
"=  c #350325A37560",
"-  c #361A264A778B",
";  c #394C2BCD7206",
":  c #381827DC7B6E",
">  c #37F427AD7C2C",
",  c #3B302B5C7DC2",
"<  c #43DF39816E8D",
"1  c #46113AF97435",
"2  c #48133E6B712A",
"3  c #46DD39947E54",
"4  c #49893D687C7D",
"5  c #41A541AC4184",
"6  c #6BDB6BDB6BDB",
"7  c #718071807180",
"8  c #74C774C774C7",
"9  c #77FA77FA77FA",
"0  c #791979197919",
"q  c #7F597F597F59",
"w  c #46EA392C8026",
"e  c #4813394885E6",
"r  c #49A83B038667",
"t  c #4A133B4E87DB",
"y  c #4D5A3F688796",
"u  c #4A3F3B618844",
"i  c #4B4A3C4489F0",
"p  c #4D2B3F13880A",
"a  c #4EE7411C87A3",
"s  c #4FAB41C08A05",
"d  c #4E433FD78A6A",
"f  c #4EA440288B18",
"g  c #4EE640648B72",
"h  c #50B3426D8C3F",
"j  c #513042F98CAE",
"k  c #5ECF53BC8D55",
"l  c #69775F0F93CD",
"z  c #63E45705996B",
"x  c #6D73613C9EDD",
"c  c #6FF263F4A08F",
"v  c #745B6942A37D",
"b  c #79076DDFA6A3",
"n  c #79236E06A725",
"m  c #81C97923A5A8",
"M  c #859E7DD6A7BE",
"N  c #87C17DC9B0D3",
"B  c #025A8207AFE6",
"V  c #006C8323B2BC",
"C  c #019684FAB385",
"Z  c #024F8689B576",
"A  c #01CF8BAEBCFF",
"S  c #7C61B72FCBEC",
"D  c #60F6B133D06D",
"F  c #54C6C583ED47",
"G  c #7C86C98AE4AC",
"H  c #715BD07AF238",
"J  c #75EFD1FDF29B",
"K  c #7B92D36AF26B",
"L  c #77FCD2A1F335",
"P  c #79AAD395F397",
"I  c #8A828A828A82",
"U  c #8BD98BD98BD9",
"Y  c #8D9C8D9C8D9C",
"T  c #8E9B8E9D8E91",
"R  c #925992599259",
"E  c #947F94819479",
"W  c #999599AA993B",
"Q  c #9B399B399B39",
"!  c #9D059CF89CEF",
"~  c #8EB6873DADAA",
"^  c #9EC49D6AA216",
"/  c #8B6C823FB146",
"(  c #8B9E8211B355",
")  c #8F6A864BB5DD",
"_  c #8D188B4BB831",
"`  c #92188B20B135",
"'  c #94958BC6B9CF",
"]  c #95BF8D37B9E3",
"[  c #968C8D4EBA11",
"{  c #985D8F98BB65",
"}  c #98338FAABC75",
"|  c #982E9267B17A",
" . c #92BF927DBEFC",
".. c #99AD9181BCBE",
"X. c #9E13961DBF8F",
"o. c #9F7497E7BFC7",
"O. c #A0CCA0CCA0CC",
"+. c #A631A62EA62C",
"@. c #A89DA89DA89D",
"#. c #AB4DABABAA08",
"$. c #ABD3AC2FAA63",
"%. c #A70FA48EB1EC",
"&. c #AD5DACADB0C8",
"*. c #AEA6AD34B54A",
"=. c #B210AF3DBD9A",
"-. c #B10EB10EB10E",
";. c #B309B309B309",
":. c #B3D1B3D2B3CF",
">. c #B7E7B7E7B7E7",
",. c #BCABBCABBCAB",
"<. c #BED4BED4BED4",
"1. c #89DDBC98CEA4",
"2. c #AF69A99BC83B",
"3. c #B216ABE6CADD",
"4. c #B3F5ADCDCDDE",
"5. c #BCA6BBBBC0A6",
"6. c #BE8CBCCBC5CF",
"7. c #B6E6B0F7CFD7",
"8. c #B9DCB4EECE76",
"9. c #B7ABB209D08B",
"0. c #BEF8B99CD58A",
"q. c #C0FFBB0CD5F8",
"w. c #C12BBC11D6A6",
"e. c #C3A3BE95D851",
"r. c #A668C81FD424",
"t. c #84F1CAB6E3CF",
"y. c #83BCD5A0F32E",
"u. c #82CAD617F432",
"i. c #8313D678F49E",
"p. c #82D2D7A4F5F2",
"a. c #C077C077C077",
"s. c #C275C275C275",
"d. c #C3C9C3C9C3C9",
"f. c #C539C53BC52F",
"g. c #C5CEC5CEC5CE",
"h. c #C7F1C7F1C7F1",
"j. c #CB1DCB1DCB1D",
"k. c #CB68CB68CB68",
"l. c #CF69CF69CF69",
"z. c #C422C0C4D1CB",
"x. c #C83DC3B3DAE4",
"c. c #C8B8C431DB54",
"v. c #C8C3C43BDB67",
"b. c #C8D3C44FDB65",
"n. c #CA7BC5EADCA4",
"m. c #CB07C6D6DD03",
"M. c #D43DD43DD43D",
"N. c #DBD9DB91DD7B",
"B. c #D385D005E29C",
"V. c #D42CD08BE2DB",
"C. c #D7B3D486E4AC",
"Z. c #D9A6D63BE6B7",
"A. c #D9FAD665E66C",
"S. c #DB77D97CE4D6",
"D. c #DBEBD927E87B",
"F. c #DEF0DC3FEA28",
"G. c #E276DFB2ED47",
"H. c #DCF3F39DFB92",
"J. c #E42FE45AE397",
"K. c #E325E2C8E514",
"L. c #E50CE50CE50A",
"P. c #E778E65FEC2D",
"I. c #E467E1BFEDB8",
"U. c #E8EFE896EAA6",
"Y. c #EACDEACDEACD",
"T. c #EA68E91FEFC4",
"R. c #EEBDEEB1EEAA",
"E. c #EF47EF25F063",
"W. c #F024F024F024",
"Q. c #E79AE562F0A1",
"!. c #EC54E702F0A1",
"~. c #EB6FE9D5F205",
"^. c #EBE9EA0BF2D7",
"/. c #EDF7EC45F411",
"(. c #EE94ED0EF4FA",
"). c #EF78EE09F57C",
"_. c #F0DFEFA1F610",
"`. c #EC97F3E0F670",
"'. c #F68AF4AAF418",
"]. c #F722F60FFA1B",
"[. c #FA68F94DF8F7",
"{. c #F9F0F8D2FC26",
"}. c #FC07FB81FD34",
"|. c #FC52FC02FD94",
" X c #FBCFFE9EFF98",
".X c #FDEDFDEEFDEC",
"XX c #FDE8FF4CFFD8",
"oX c #FEDBFEEEFF47",
"OX c #FFA1FFACFF70",
"+X c #FEA4FF47FFC0",
"@X c #FED8FF90FFDB",
"#X c #FFFDFFFDFFFD",
"$X c None",
/* pixels */
"$X$X$X$X$X$X$X$X$X$X$X$X$X$X$X$X$X$X$X$X$X$X$X$X",
"$X$X$X$X$X$X$X$X$X$X$X$X$X$X$X$X$X$X$X$X$X$X$X$X",
"$X$X$X$X$X$X$X$X$X$X$X$X$X$Xo # = > = * > $X$X$X",
"$X$X$X$X$X$X$X$X$X< 4 h h h a p h p f h u , $X$X",
"$X$X$XL.6.e.x.b.b.c.c.b.c.c.c.b.b.b.b.b.q.` $X$X",
"$XF H.XXXXXXXXXXXXXXXXXXXXXXXXXXXXXXXXXXXXY.*.$X",
"Z H  XXXXXXXXXXXXXXXXXXXXXXXXXXXXXXXXXXXXXXX$X$X",
"B J XXXXXXXXXXXXXXXXXXXXXXXXXXXXXXXXXXXXXXXX$X$X",
"$XK XXXXXXXXXXXXXXXXXXXXXXXXXXXXXXXXXXXXXXXX`.$X",
"$XK XXA.V.B.V.m.8.S.f.Y.XXXXXXXXXXXXXXXXXXXX1.$X",
"$XK }.{ v x N ( z ~ Y :.,.h.a.M.k.k.>.s.+.'.t.$X",
"$XG ].{ c n n ) } =.Y 6 I R 7 Y 9 q Q U ! [.y.$X",
"$XS {.e.m.A.4.e.Q.J.:.O.@.-.0 8 a.@.g.f.R.XXp.$X",
"$Xr.XXXXXXXXXXXXXXXXXXXXXXW.d.l.XXXXXXXXXXXXu.V ",
"$X$XXXXXXXXXXXXXXXXXXXXXXXXXXXXXXX_.D.I.].XXu.C ",
"$X$XXXXXXXXXXXXXXXXXXXXXXXXXXXXXm.( ..' o.!.p.A ",
"$X$XW.XXXXXXXXXXXXXXXXXXXXXXXXD.[ %.E N.q. .D $X",
"$X$X| G.^.^.^.(.).).^.^.^.T.P.2.7.$.  X ^ _ $X$X",
"$X$X; r p i u r w 3 h h a 1 @ 2 0.$.. 5 &.o.$X$X",
"$X$X$X$ O % $X$X$X$X$X$X$X$X$X$XM 5.W L.A.k $X$X",
"$X$X$X$X$X$X$X$X$X$X$X$X$X$X$X$X& m 8.3.l $X$X$X",
"$X$X$X$X$X$X$X$X$X$X$X$X$X$X$X$X$X$X+ $X$X$X$X$X",
"$X$X$X$X$X$X$X$X$X$X$X$X$X$X$X$X$X$X$X$X$X$X$X$X",
"$X$X$X$X$X$X$X$X$X$X$X$X$X$X$X$X$X$X$X$X$X$X$X$X"
};
