/* XPM */
static char *__x___iok[] = {
/* columns rows colors chars-per-pixel */
"24 24 232 2",
"   c #05E50427017F",
".  c #0D1909AA044E",
"X  c #23BA198C0A5F",
"o  c #25F41DDE082E",
"O  c #24DB1CF10A01",
"+  c #25761D6C0B89",
"@  c #29811DE80DB9",
"#  c #2B3F20850F7B",
"$  c #29E420D41016",
"%  c #2CC123470FD7",
"&  c #2EAF233010BE",
"*  c #34E726AF104E",
"=  c #34B9261C1096",
"-  c #353527BA1138",
";  c #36C02B7F1578",
":  c #3B6629721273",
">  c #3A842BED128C",
",  c #3FBD2D3B12DC",
"<  c #3B992DAB1646",
"1  c #3F272F50144D",
"2  c #366E2B08195D",
"3  c #3CDD30881ACA",
"4  c #41282D3A1215",
"5  c #3FC92D4312E0",
"6  c #410D2E66137A",
"7  c #44102F2A12D9",
"8  c #411F30AC14A0",
"9  c #477D311F1545",
"0  c #441E3280177E",
"q  c #48EF331714B6",
"w  c #41C7317117AA",
"e  c #431335761AC3",
"r  c #4B6336E917E4",
"t  c #4C5537BE1A06",
"y  c #4B673B451D4F",
"u  c #4C8F3D011E47",
"i  c #577D3600129C",
"p  c #50BD3D841DDA",
"a  c #509F3DD91DA9",
"s  c #46BE387B2013",
"d  c #596C436D1D3D",
"f  c #64A346651C8E",
"g  c #7C824E431BC4",
"h  c #55674204202F",
"j  c #5D1847472259",
"k  c #5BC248E52438",
"l  c #6103492D1FD1",
"z  c #67A54B8822E6",
"x  c #64844FC82773",
"c  c #6CE54CF62289",
"v  c #6EB94EBE223D",
"b  c #6C8E577122D3",
"n  c #6D23528B23F3",
"m  c #6FCC592C2A57",
"M  c #70605A7F23BB",
"N  c #733F57E62A8A",
"B  c #7D1358B0284C",
"V  c #7C3C5C3A2B53",
"C  c #7CF561032F74",
"Z  c #7C0963A73200",
"A  c #7F93661C3313",
"S  c #7FFC65E1489C",
"D  c #82F840220E4D",
"F  c #838061312DCA",
"G  c #800F66713337",
"H  c #8500666B31D1",
"J  c #831D68B23035",
"K  c #8CF568B53110",
"L  c #8BE56FB23775",
"P  c #96EE6EAC3367",
"I  c #91E76F9C3608",
"U  c #9FCF758D32E9",
"Y  c #9DD173AB34A8",
"T  c #940673E83922",
"R  c #9F3F77D53937",
"E  c #A57274A23489",
"W  c #A61977113685",
"Q  c #A4757CDA37B3",
"!  c #9B297BFF414D",
"~  c #9C897DC63FC3",
"^  c #987979AB56AF",
"/  c #A0A5804B3800",
"(  c #B407854239CD",
")  c #B82E93F134C5",
"_  c #D4348C203525",
"`  c #DAB896303BB5",
"'  c #E57E89E83F68",
"]  c #E5E38A393FAD",
"[  c #E63499773B2B",
"{  c #D96BAE883CA8",
"}  c #A69B856D42B0",
"|  c #B1BC8A5F43B9",
" . c #BFB78E524322",
".. c #BAAA8F8B45D7",
"X. c #BFB891DD462E",
"o. c #BB9696094B38",
"O. c #B85493D95033",
"+. c #C2738D3F415B",
"@. c #C0448EAC4325",
"#. c #CC54936A3FC6",
"$. c #CB97962F44E9",
"%. c #CDC8959D459C",
"&. c #C20B9B2E4DB8",
"*. c #C6689EA64F6C",
"=. c #C98698DB4828",
"-. c #CED39EFF47E6",
";. c #D0C893DF42CA",
":. c #D63599FE46A6",
">. c #D4129D954498",
",. c #C7719FCA515C",
"<. c #DF18A5184D8B",
"1. c #DD78A63D4F15",
"2. c #D384A5C551A7",
"3. c #D741A5234FEE",
"4. c #D9EDAE4C572C",
"5. c #DC87B0C75EFF",
"6. c #E39DA7384905",
"7. c #E8E9A7754C9B",
"8. c #EFFEAD1C4F85",
"9. c #F129A45C40E7",
"0. c #FE9FAC0D4354",
"q. c #FFFFAD5643DA",
"w. c #FFFFAE7A4440",
"e. c #F234ADDF4F60",
"r. c #EA40BB644867",
"t. c #F1B8B0494CB1",
"y. c #F411B20A4D82",
"u. c #F913B60B4F3E",
"i. c #F407AF3B5005",
"p. c #E710B1E4564D",
"a. c #EB73B1D1534C",
"s. c #E229B51F5A92",
"d. c #E6E5B8D85C60",
"f. c #EB14BAE55CAB",
"g. c #F39CB1725214",
"h. c #F1B7B28C53A0",
"j. c #F6D6B71A561E",
"k. c #FC47B5C052DC",
"l. c #FFFFB7C65055",
"z. c #FF2EB7A053A9",
"x. c #FFFFB8E95040",
"c. c #FFFFBAE55150",
"v. c #FFFFBBA4518D",
"b. c #FFFFB90D5351",
"n. c #FFFFBA575227",
"m. c #FFFFBBAD53C5",
"M. c #FFEFBF165360",
"N. c #FFFFB8665409",
"B. c #FFFFB959558B",
"V. c #FFFFBA14562F",
"C. c #FFFFBACD568B",
"Z. c #FFFFBB9156CA",
"A. c #FFFFBC3156F5",
"S. c #FFFFBFA95402",
"D. c #FFFFBE0657C9",
"F. c #F07ABD815DBE",
"G. c #FD5FBBD35868",
"H. c #FFFFBD0158B6",
"J. c #FF37BDC75930",
"K. c #FFFEBDCF594A",
"L. c #FFFFBE9C5849",
"P. c #FFFFC00F58ED",
"I. c #FFFFBFA45A30",
"U. c #C2659B396C5E",
"Y. c #C89AA0376EA1",
"T. c #CF4FA59F7004",
"R. c #FFFFCD8F45F5",
"E. c #FFFFCFAC467D",
"W. c #F5DAC4C74ACF",
"Q. c #FFFFCCD34D0B",
"!. c #FFFFCD534D33",
"~. c #FFFFD06D46B4",
"^. c #FFFFC0C85472",
"/. c #FFFFC225555E",
"(. c #FFFFC3B25589",
"). c #FFFFC18E59B1",
"_. c #FFFFC1195AC3",
"`. c #FFFFC20A59EA",
"'. c #FFFFC1185AE7",
"]. c #FFFFC1EE5B42",
"[. c #FFFFC28F5A2A",
"{. c #FFFFC6A05AB2",
"}. c #F9CEC0675D6B",
"|. c #FFFFC1A65CBE",
" X c #FD62C2B05E17",
".X c #FFFFC3155DFA",
"XX c #FEA5C3775E60",
"oX c #FFFFC36D5E24",
"OX c #FFFFC4335F27",
"+X c #FFFFC4E95F9F",
"@X c #FFFFC98D5C15",
"#X c #FFFFCA8A5C8D",
"$X c #FFFFC5BF606C",
"%X c #FFFFC6A2608A",
"&X c #FFFFC7826019",
"*X c #FFFFC6BE611A",
"=X c #FFFFC3E5650F",
"-X c #FFFFC4BB65C8",
";X c #FFFFC8A96185",
":X c #FFFFC8A262B2",
">X c #FFFFC9ED6224",
",X c #FFFFC9A463AB",
"<X c #F9B8C95964E5",
"1X c #FD42CA7F64C5",
"2X c #FFFFCAB36479",
"3X c #FFFFCB1464F7",
"4X c #FE4BCD2D6706",
"5X c #FFFDCCCD6656",
"6X c #FFFFCCD167C7",
"7X c #FFFFCDB26723",
"8X c #FFFFCED767A2",
"9X c #FB77CAD16931",
"0X c #FFFFCD1B6806",
"qX c #FFFFCD756838",
"wX c #FFFFCEA0681F",
"eX c #FFFFCFE76819",
"rX c #FDFECDA96B5E",
"tX c #FFFFCCC66CC1",
"yX c #FFFFCD996D78",
"uX c #FFFFCFDC6E9C",
"iX c #FFFFD238691C",
"pX c #FFFFD2846941",
"aX c #FFFFD42F6A17",
"sX c #FFFFD4A36A51",
"dX c #FFFFD5A56AD4",
"fX c #FFFFD6056B05",
"gX c #FFFFD0E06E43",
"hX c #FFFFD0A16F01",
"jX c #F61BC4D3733B",
"kX c #FEF7CBEA7800",
"lX c #FFFFCCE07872",
"zX c #FFFFCD6178E5",
/* pixels */
"D ] {.R.5XN.S.q.L.wXL.-XlXQ.0X3XS.b.k.5X,XN.5X5X",
"D ] {.R.5XN.S.q.S.wXH.-XlXQ.0X$Xx.M.N.5X3XN.5X5X",
"D ] {.R.5XN.S.q.L.0XL.-XlXQ.0X$Xu.M.N.5X3XN.5X5X",
"D ] {.R.3XN.S.q.L.$XH.tXlXQ.0X$Xb.M.N.5X3XN.5X5X",
"D ] {.R.3XN.S.q.L.$XL.yXlXQ.0X$Xk.M.b.5X3XN.5X5X",
"D ] {.R.5XN.S.q.L.$XH.yXlXQ.3X-XS.b.N.5X3XN.5XL.",
"D ] {.R.5XN.S.q.L.$XH.yXlXQ.wXwXL.k.b.5X3XN.-XN.",
"D ] {.R.5Xb.S.q.H.$XL.tXlXQ.0X0XS.b.N.5X-XH.H.$X",
"D ] #XR.5XN.S.q.L.*X|.yXzX!.5X5X_.b.N.5X,XS.|.{.",
"D ] -.{ 5XN./.9.$...@.5.zX!.wXwX<.#.k.5X3X8. .2.",
"D ] q M 5XN.>.f 0 p t s ! W.wXiXA , i.5Xf.c : | ",
"D ] q M 5X7.r i =.p.<.~ % / 3XiXA , i.f.x < +.|.",
"D ] q M 5XP - _ _.*X|.9XS e s.iXA 6 ;.k w %.L.|.",
"D ] q M 5Xj d 0.L.$XL.hXU.+ ,.fXG X 9 s 2.H.L.*X",
"D ' q M 5Xy n q.L.|.L.hXY.o o.fXG   . L H.*XL.|.",
"D ] q M 5Xh l q.L.*XL.fXY.$ o.fXA * c % E 3XL.|.",
"D ' q M 5XF 1 [ _.*XL.wX^ ; 4.fXA 1 6.B % } G.|.",
"D ' 9 M 5X:.* g a.}.j.,.2 G <XiXA 1 y.a.V % W |.",
"D ' 7 b 5Xk.( 7 p N z 3 N r.wXiXZ > t.L.i.Z + T ",
"D ] Q ) 5Xb.M.` Y H K O.jX!.5XwXX.U k.L.H.f.R T ",
"D ] #XR.5XN.S.q.|.,X_.yXlXQ.wX*XS.(.N.K.N.3X|.*X",
"D ] {.R.,Xb./.q.H.$XL.yXlXQ.0X|.k./.b.K.N.3XL.|.",
"D ] {.R.S.M./.0.L.$XL.yXlXQ.0X$Xu.M.N.0XN.3XL.$X",
"D ] {.R.L.b./.0.L.$XK.tXlXQ.wX*Xx.M.N.3XH.3XL.|."
};
