/* XPM */
static char *dummy[]={
"24 24 502 2",
".# c #242752",
"#w c #242755",
"Qt c #252852",
".a c #252855",
"#U c #252856",
"af c #252858",
"ag c #25285a",
"#. c #262956",
".w c #262957",
"#V c #27285a",
".Q c #272a57",
"ah c #272a5d",
"az c #272a5e",
".v c #282a56",
".P c #282b57",
".R c #282b59",
".x c #282b5a",
".b c #292c59",
"aA c #292c63",
".p c #292c66",
"ay c #292d5e",
".o c #292d66",
"## c #2a2a5a",
".y c #2a2d5c",
"aR c #2a2d63",
"aS c #2a2d64",
".I c #2a2e6a",
".S c #2b2d5c",
".d c #2b2e5d",
".e c #2b2e5f",
".c c #2c2f5d",
"dn c #2c3069",
".H c #2c306b",
".T c #2d305e",
".z c #2d3062",
"aQ c #2d3064",
"dH c #2d316b",
"aT c #2e2f6a",
".f c #2e3162",
".U c #2e3261",
"b# c #2e326c",
".4 c #2e326f",
".J c #2e3270",
"dI c #2f336f",
".V c #303365",
".A c #303467",
"b4 c #30346a",
".n c #30346c",
".q c #30346f",
".3 c #31336e",
"bI c #31356a",
"fI c #313570",
"dJ c #313572",
"#W c #322c64",
".k c #32356b",
"a9 c #32356c",
".G c #323570",
"aP c #333668",
".g c #333669",
"a8 c #33366b",
"c1 c #33366f",
"bo c #33376b",
"b5 c #33376f",
".u c #333772",
"dK c #333776",
".W c #34376a",
"bJ c #34376e",
".B c #34386c",
".l c #34386f",
".E c #343870",
"d0 c #343873",
"d1 c #343874",
"#a c #352d5c",
"bp c #35386e",
"cn c #35386f",
"dp c #353876",
"co c #353972",
".F c #353973",
".O c #353978",
"#b c #362e59",
"ai c #362e6a",
".C c #36396f",
".j c #363a6f",
".D c #363a70",
".t c #363a75",
"fJ c #363a7c",
".2 c #373773",
".0 c #373973",
".1 c #373974",
".h c #373a6d",
".K c #373b78",
".N c #373b79",
"#c c #382f58",
".X c #383a6f",
".5 c #383b79",
".i c #383c70",
".m c #383c74",
".9 c #383c7e",
".Z c #393b73",
".s c #393d79",
"dq c #393d7e",
"fK c #393d82",
"as c #393d86",
"#d c #3a335a",
"#p c #3a3563",
".Y c #3a3b72",
".M c #3a3d7c",
".8 c #3a3d7f",
"eD c #3a3e79",
"fm c #3a3e7d",
"fn c #3a3e80",
"#v c #3a3e83",
"dL c #3b3c7a",
"cG c #3b3e76",
".L c #3b3f7c",
"at c #3b408e",
"#x c #3c2a68",
"#q c #3c3665",
"d2 c #3c386e",
"#l c #3c3d77",
".r c #3c407b",
"e1 c #3c407e",
"fL c #3c4189",
"aK c #3c4194",
"#e c #3d355c",
".6 c #3d3f7f",
".7 c #3d3f80",
"e2 c #3d4082",
"e0 c #3d417d",
"#u c #3d4185",
"#T c #3d428a",
"fo c #3e4187",
"fl c #3e427d",
"aJ c #3e4394",
"#f c #3f365e",
"#m c #3f3c75",
"bq c #3f427a",
"c4 c #3f4383",
"c5 c #3f4386",
"#g c #403862",
"e3 c #404389",
"fM c #404591",
"#o c #413868",
"cJ c #414584",
"#S c #41458d",
"ae c #414692",
"#h c #423a65",
"d3 c #423a69",
"eE c #424183",
"fp c #42448f",
"#t c #434286",
"#J c #434382",
"c6 c #43488d",
"e4 c #444691",
"ad c #444996",
"fN c #44499a",
"#r c #453c70",
"aa c #45418e",
"#7 c #45478d",
"ax c #454a9b",
"#n c #463b6f",
"ap c #46488f",
"fq c #464897",
"#i c #473e6b",
"#R c #47478f",
"#6 c #47488c",
"au c #474c9c",
"b. c #48497d",
"e5 c #484999",
"ao c #484b92",
"ac c #484c98",
"aB c #49327b",
"#j c #493e6c",
"#k c #493e70",
"d7 c #494685",
"aw c #494e9f",
"fO c #494ea4",
"ab c #4a4b97",
"fr c #4a4c9f",
"aO c #4a4fa5",
"eo c #4a50a8",
"a# c #4b3d73",
"#s c #4b4078",
"#5 c #4b4783",
"aL c #4b50a4",
"eF c #4c448c",
"c# c #4c4794",
"an c #4c4b8f",
"aI c #4c4d9a",
"av c #4c51a1",
"d6 c #4d4162",
"dr c #4d4a8f",
"e6 c #4d4ca0",
"cK c #4d508d",
"aN c #4d53a8",
"bk c #4d53b1",
"bE c #4d53ba",
"bD c #4d54b7",
"#B c #4e3954",
"#O c #4e3c55",
"d4 c #4e3d5e",
"dM c #4e4066",
"eG c #4e4692",
"fs c #4e50a8",
"fP c #4e53af",
"#C c #4f3a54",
"#N c #4f3c54",
"ar c #4f4278",
"d8 c #4f4e95",
"du c #4f54a4",
"a7 c #4f54b0",
"aM c #4f55a9",
"#A c #503854",
"#D c #503c54",
"e7 c #504ea7",
"a0 c #5051a0",
"eM c #5053b0",
"dv c #5056ad",
"d5 c #513e54",
"eg c #51418b",
"dN c #51456f",
"eH c #514998",
"ba c #514c8b",
"aF c #515099",
"e8 c #5152af",
"dO c #51569f",
"b0 c #5158c6",
"ft c #5256b2",
"a6 c #5258b3",
"#E c #533d54",
"#0 c #533e54",
"#F c #533f54",
"a. c #533f56",
"am c #534363",
"eL c #534faa",
"dP c #5358ab",
"#Z c #543d54",
"al c #543e54",
"#G c #543f54",
"#8 c #544797",
"bs c #545589",
"cH c #545790",
"e9 c #5457b7",
"d9 c #5459b2",
"a5 c #5459b4",
"dQ c #545ab4",
"fQ c #545abc",
"bn c #545bbc",
"aD c #553e54",
"#1 c #553f54",
"#3 c #554054",
"aE c #554979",
"eI c #554d9f",
"eN c #5557bd",
"a1 c #5559ac",
"#y c #562f71",
"ak c #563c57",
"#2 c #564054",
"#4 c #564056",
"be c #564154",
"dU c #564155",
"aX c #564158",
"aH c #564575",
"en c #56467b",
"a4 c #565bae",
"cj c #565ed5",
"#z c #573468",
"bc c #574155",
"bV c #574158",
"eb c #57415a",
"dc c #574255",
"aG c #574987",
"eJ c #574ca4",
"ep c #5756be",
"#M c #583f62",
"#P c #584167",
"aZ c #58476f",
"eK c #584da9",
"cL c #585c9f",
"fu c #585dbe",
"bl c #585ebf",
"bm c #585ec0",
"#X c #59337f",
"da c #59425e",
"aW c #594357",
"dd c #594458",
"dV c #59455b",
"#Q c #59467b",
"dR c #595ebe",
"#Y c #5a3b62",
"bQ c #5a4360",
"cR c #5a4458",
"f. c #5a5cc3",
"bZ c #5a61cb",
"ct c #5b5fa4",
"bH c #5b62cb",
"aq c #5c4579",
"aY c #5c4e88",
"d. c #5c5bb3",
"bK c #5c5f98",
"e. c #5c61c2",
"em c #5d447d",
"bF c #5d64cc",
"el c #5e457a",
"#I c #5e457b",
"dB c #5e495c",
"eO c #5e5ac4",
"bG c #5e65ce",
"#H c #5f4368",
"ej c #5f4477",
"ek c #5f4578",
"fv c #5f64cc",
"aC c #603b76",
"eh c #604379",
"ei c #604477",
"er c #604e8e",
"b1 c #6067d8",
"aU c #613a91",
"aV c #614868",
"eu c #615383",
"eP c #6160cc",
"c9 c #6161a5",
"f# c #6163cf",
"aj c #623882",
"dT c #624c7c",
"eq c #624f99",
"cf c #625279",
"et c #625485",
"b3 c #636adc",
"fR c #636add",
"dh c #645477",
"es c #645488",
"a2 c #6466b0",
"ck c #646ce2",
"cC c #646ce7",
"#L c #65437e",
"ds c #655378",
"ev c #655a83",
"bf c #6563ad",
"c2 c #65679e",
"b2 c #656cde",
"bv c #66447b",
"dz c #675465",
"dw c #675ec4",
"e# c #6761c0",
"eQ c #686ad6",
"fa c #686cd9",
"fw c #686ddc",
"#9 c #694891",
"do c #6a6c9c",
"cD c #6a72eb",
"#K c #6b4398",
"cN c #6c649c",
"c3 c #6c6e9f",
"cm c #6c74f0",
"bP c #6d44a8",
"cQ c #6d567b",
"cl c #6d75ec",
"dx c #6e559e",
"dy c #6e5a6e",
"ea c #6e5bb1",
"dg c #6e5c6d",
"ew c #6e6382",
"fS c #6e76f0",
"ex c #6f6382",
"bj c #6f72b8",
"c8 c #705f7c",
"fb c #7077e1",
"cY c #717af2",
"eR c #7276da",
"dS c #7362d3",
"fx c #7379e9",
"ey c #746a80",
"ec c #756778",
"a3 c #7576b6",
"cX c #757eef",
"cF c #767ffe",
"cT c #776576",
"dA c #776675",
"bS c #776676",
"ci c #787de0",
"cE c #7880f4",
"fc c #7983e5",
"fT c #7a83fc",
"d# c #7b5ebc",
"cx c #7c6b7a",
"cv c #7d6a86",
"eS c #7d84d9",
"dk c #7d88f5",
"cP c #7f65c3",
"fy c #7f87f0",
"dC c #807ba9",
"ez c #817582",
"dt c #827fab",
"bz c #8379aa",
"c0 c #848eff",
"cZ c #858ff8",
"db c #867684",
"fd c #8691e7",
"dj c #8892f1",
"bw c #8a7b89",
"eT c #8a93d9",
"bx c #8b7d8a",
"eA c #8b808c",
"fU c #8b94ff",
"cz c #8c82ac",
"cO c #8d82a4",
"bC c #8d90d3",
"fz c #8e98f2",
"cq c #8f90c3",
"di c #8f97ee",
"bd c #90828f",
"b6 c #9090bc",
"bg c #9090c9",
"dE c #929df4",
"cs c #9495cc",
"dl c #95a0f9",
"dm c #95a0ff",
"fe c #97a3e8",
"cW c #9aa1ef",
"de c #9e929d",
"fA c #9ea9f4",
"dD c #9faaee",
"fV c #9faaff",
"eU c #a1acdb",
"ca c #a492c8",
"c7 c #a5a2ce",
"cB c #a7a9eb",
"dW c #a7add4",
"dF c #a8b4fa",
"bt c #a9a7c9",
"df c #aa9fa9",
"dG c #abb7ff",
"cI c #afaecb",
"ff c #b1bde9",
"dX c #b2bff2",
"fB c #b4bff4",
"bY c #b5b5e2",
"ed c #b5b9cb",
"fW c #b5c1ff",
"cS c #b6acb5",
"bW c #b8b6df",
"by c #b9b0b8",
"cu c #bab5d1",
"dY c #bcc9f7",
"eV c #bdc5db",
"bb c #c0b6cb",
"cw c #c1b9c1",
"eB c #c2bdc4",
"cp c #c2c0de",
"br c #c3c1db",
"bU c #c6bfc5",
"bM c #c7c4d8",
"ee c #c8cde3",
"eW c #c9cfdf",
"dZ c #c9d7ff",
"bh c #cac7de",
"fC c #cad5f5",
"cg c #cdcff5",
"fg c #cdd6ea",
"cy c #cec9ce",
"cU c #cfc9ce",
"fX c #cfdcff",
"ce c #d1ccd1",
"cV c #d1cfe6",
"cM c #d3d2ea",
"cb c #d9d5d9",
"bi c #d9d5df",
"cr c #d9d7e4",
"cd c #dbd7db",
"bR c #ddd9dd",
"bT c #dedbde",
"ch c #dfdce9",
"eX c #dfdfe1",
"fD c #e0e7f6",
"fh c #e2e6ec",
"bu c #e3dee6",
"cA c #e3e0e8",
"eY c #e4e3e4",
"cc c #e5e2e5",
"bL c #e6e4e9",
"bA c #e7e5eb",
"bN c #e8e5e9",
"b9 c #e8e6ed",
"b7 c #e8e6ee",
"fY c #e8f1ff",
"bB c #e9e7e9",
"bO c #e9e7ea",
"c. c #eae8ec",
"bX c #ebe9ec",
"b8 c #ece9ec",
"fi c #ecedef",
"eZ c #eeeeee",
"ef c #eef9ff",
"fE c #eff1f6",
"fj c #f2f2f2",
"fF c #f5f6f8",
"fk c #f8f8f8",
"fG c #f9f9f9",
"fH c #fcfcfc",
"fZ c #fcffff",
"eC c #ffffff",
"Qt.#.a.b.c.d.e.f.g.h.i.j.k.l.m.n.o.p.q.r.r.s.t.u",
".v.a.a.w.x.y.e.z.A.B.C.D.E.E.F.G.H.I.J.K.L.M.N.O",
".P.Q.Q.Q.R.S.T.U.V.W.X.Y.Z.0.1.2.3.H.4.5.6.7.8.9",
"#.###a#b#c#d#e#f#g#h#i#j#k#l#m#n#o#p#q#r#s#t#u#v",
"#w#x#y#z#A#B#C#D#E#F#G#H#I#J#K#L#M#N#O#P#Q#R#S#T",
"#U#V#W#X#Y#Z#E#0#1#2#3#4#5#6#7#8#9a.a#aaabacadae",
"afagahaiajakalal#1#2#3#3amanaoapaqarasatauavawax",
"ayahazaAaBaCaDal#1#2#3#3#3aEaFaGaHaIaJaKaLaMaNaO",
"aPaQaRaSaTaUaV#1#3#2#3#3aWaXaYaZa0a1a2a3a4a5a6a7",
".ha8a9b.b#babbbc#2#2#2#2bdbe#4bfbgbhbibjbkblbmbn",
"bobpbqbrbsbtbubv#2bw#2bxby#2#2bzbAbBbCbDbEbFbGbH",
"bIbJbKbLbMbNbObPbQbRbSbTbU#2#2bVbWbXbYbZb0b1b2b3",
"b4b5b6b7b8b9c.c#cacbcccdce#2#2#2cfcgchcicjckclcm",
"cncocpcqcrcsbActcucvcwcxcy#2#2#2#2czcAcBcCcDcEcF",
"cGcHcIcJcKcLcMcNcOcPcQcRcSbc#2#2cTcUcVcWcXcYcZc0",
"c1c2c3c4c5c6c7c8c9d.d#dadbdcdddedfdgdhdidjdkdldm",
"dndodpdqc5drdsdtdudvdwdxdydzdAdB#2#2#2dCdDdEdFdG",
"dHdIdJdKdLdMdNdOdPdQdRdSdTdU#2#2#2#2#2dVdWdXdYdZ",
"d0d1d2d3d4d5d6d7d8d9e.e#eaeb#2#2#2#2#2#2ecedeeef",
".regeheiejekelemeneoepeqereseteuevewexeyezeAeBeC",
"eDeEeFeGeHeIeJeKeLeMeNeOePeQeReSeTeUeVeWeXeYeZeC",
"e0e1e2e3e4e5e6e7e8e9f.f#fafbfcfdfefffgfhfifjfkeC",
"flfmfnfofpfqfrfsftfufvfwfxfyfzfAfBfCfDfEfFfGfHeC",
"fIdKfJfKfLfMfNfOfPfQbHfRfSfTfUfVfWfXfYfZeCeCeCeC"};
