/* XPM */
static char *__x___vlc[] = {
/* columns rows colors chars-per-pixel */
"24 24 175 2",
"   c #A7C23AB200BD",
".  c #9F1A40D511DA",
"X  c #B1DF416D00B5",
"o  c #BCAA484D0203",
"O  c #BF244B4F0209",
"+  c #AF0E4A8611C1",
"@  c #C4874E44020A",
"#  c #C0CE520B0176",
"$  c #C1A353EC016D",
"%  c #C529572E01ED",
"&  c #C4F65042061E",
"*  c #CD34518A0172",
"=  c #CE5055A30169",
"-  c #CB07571806B1",
";  c #C5AA583401ED",
":  c #CF2E5B450000",
">  c #CFA65AF20019",
",  c #CF7059E10203",
"<  c #CD6C67CE0C5A",
"1  c #CDAD68830C56",
"2  c #CD6B69120C5A",
"3  c #D7E467510030",
"4  c #DC01618B0000",
"5  c #DCEA67510202",
"6  c #D76D6A2A0030",
"7  c #DC5768720000",
"8  c #DFE669B601F9",
"9  c #D90E6D2D0202",
"0  c #DF0C6C4D01F6",
"q  c #DB7470CD0202",
"w  c #E15F62F1024B",
"e  c #E62261A90224",
"r  c #E5D860750295",
"t  c #E4B56371023D",
"y  c #E3C0641F0000",
"u  c #E34865BD0000",
"i  c #E20C64C1024B",
"p  c #E8CD646D0213",
"a  c #EB1D665D0484",
"s  c #E1116B840202",
"d  c #E6106BC8024B",
"f  c #E1066C980000",
"g  c #E5716D420000",
"h  c #EB8669640213",
"j  c #EB846E8E024B",
"k  c #EE2B6DBF0224",
"l  c #ED236B250479",
"z  c #ED8170C90022",
"x  c #EEAC70410000",
"c  c #EDDA702D023D",
"v  c #EFCE70A4028C",
"b  c #ED07736901D4",
"n  c #EB2C7432024B",
"m  c #EFA776670024",
"M  c #EDCD7401033F",
"N  c #ED3D7805024B",
"B  c #EF207B4A0202",
"V  c #EDF8773A0E85",
"C  c #EB9F79570E70",
"Z  c #F24E7082008F",
"A  c #F25B717E01C0",
"S  c #F26571FB05A4",
"D  c #F1777ABC0024",
"F  c #F4687AFA0099",
"G  c #F1F07E2B0202",
"H  c #F45A7F520309",
"J  c #F6D77C0701C0",
"K  c #F5FB7DCC059B",
"L  c #EEBE75371199",
"P  c #EA24762D17BC",
"I  c #F0347F6617E0",
"U  c #F0877E6F10EC",
"Y  c #D7FD730E2536",
"T  c #DFDA7E0F2742",
"R  c #DE4C79AE2A2D",
"E  c #CDAE7E6C3F44",
"W  c #E1957DC225DC",
"Q  c #F45D808B002C",
"!  c #F511808301D6",
"~  c #F497879F024B",
"^  c #F72E8AFE024B",
"/  c #F8848C1E024B",
"(  c #FA35930A0248",
")  c #FAB79917024F",
"_  c #FB399C0202BD",
"`  c #F06F84641739",
"'  c #F39E82E817D8",
"]  c #F2F09B8E2FD6",
"[  c #F2E69C232FD6",
"{  c #F3C89D732FD6",
"}  c #F4699EB32FD6",
"|  c #F83AB32D2ECE",
" . c #F533A0732FD6",
".. c #F64EA4982FD6",
"X. c #F6F0A5852FD6",
"o. c #F75EAA3E2FD6",
"O. c #F7C5AB212FD6",
"+. c #F735AC5D2FD6",
"@. c #F895AF042FD6",
"#. c #F855B0922FD6",
"$. c #F839B1A22FC8",
"%. c #F82BB5502FF9",
"&. c #F83AB58B30D0",
"*. c #B8A082465F23",
"=. c #BCA3863E5F10",
"-. c #D19182CB42C0",
";. c #D573828741A5",
":. c #D7628C4A44CA",
">. c #DF3E8C674532",
",. c #DCE794045995",
"<. c #E333912E41A0",
"1. c #E11C9D7C5A2F",
"2. c #E4D3A3E95F73",
"3. c #DCA29CEF67DF",
"4. c #DED2A09968B1",
"5. c #E304A36760C8",
"6. c #E4FCAA937205",
"7. c #E863B05672ED",
"8. c #B464B8C2BB23",
"9. c #B80FBC1BBC28",
"0. c #B90DBA41BC42",
"q. c #BA4ABD6ABF03",
"w. c #DADFAEAF8487",
"e. c #DDD8B0B18586",
"r. c #DD67B7C5975F",
"t. c #E006BC48978F",
"y. c #D8DFBCA6A27F",
"u. c #CBDDBFA7B119",
"i. c #CE58BF9AB39F",
"p. c #CBA3C025B685",
"a. c #D9E7C0AFA080",
"s. c #D4E1C908B91A",
"d. c #E34EC439A49E",
"f. c #E419C427A52C",
"g. c #BABBBEC8C176",
"h. c #BEFFC38AC570",
"j. c #C2DCC4A8C4B3",
"k. c #C629CA77CA86",
"l. c #C77ECD74D001",
"z. c #CA14CD2BCD37",
"x. c #D036D184CF83",
"c. c #CCB9D1A6D311",
"v. c #CF2ED35AD3C7",
"b. c #CDFED390D5A4",
"n. c #D00AD6E3D85F",
"m. c #CC82D5ABDB58",
"M. c #D506D5B5D6A0",
"N. c #D2CFD7E5D9E7",
"B. c #D4A9D8A4DA0B",
"V. c #D4FAD90EDAB8",
"C. c #D65BDA42DB20",
"Z. c #D780DB82DB76",
"A. c #D4C6DB42DCFB",
"S. c #D6A3DAC3DCB9",
"D. c #D669DB59DD9D",
"F. c #D648DBACDF11",
"G. c #D87BDC64DCDF",
"H. c #D951DE08DF41",
"J. c #DA19DEB6DEB4",
"K. c #DA21DED7DF60",
"L. c #DAF9DF20E05A",
"P. c #D4AEDD35E0FF",
"I. c #D5EBDD6BE096",
"U. c #D5F0DEE6E264",
"Y. c #D7C5DEAEE298",
"T. c #D7D6DFEBE3A9",
"R. c #DADCDEEBE1F6",
"E. c #DAD5E0EBE0F4",
"W. c #DC19E0FDE1C5",
"Q. c #DCB9E126E28E",
"!. c #DBA8E21AE4D3",
"~. c #DB2BE3A1E70B",
"^. c #DCFFE471E5F2",
"/. c #DD77E5EDE91F",
"(. c None",
/* pixels */
"(.(.(.(.(.(.(.(.(.(.(.(.(.(.(.(.(.(.(.(.(.(.(.(.",
"(.(.(.(.(.(.(.(.(.(.(.9 q (.(.(.(.(.(.(.(.(.(.(.",
"(.(.(.(.(.(.(.(.(.(.6 m D 3 (.(.(.(.(.(.(.(.(.(.",
"(.(.(.(.(.(.(.(.(.(.C I ' V (.(.(.(.(.(.(.(.(.(.",
"(.(.(.(.(.(.(.(.(.(.e.f.f.w.(.(.(.(.(.(.(.(.(.(.",
"(.(.(.(.(.(.(.(.(.(.P./.~.m.(.(.(.(.(.(.(.(.(.(.",
"(.(.(.(.(.(.(.(.(.C.K.Q.Q.K.S.(.(.(.(.(.(.(.(.(.",
"(.(.(.(.(.(.(.(.(.K.K.^.~.R.K.(.(.(.(.(.(.(.(.(.",
"(.(.(.(.(.(.(.(.(.:.5.6.7.2.;.(.(.(.(.(.(.(.(.(.",
"(.(.(.(.(.(.(.(.$ 7 b S K K 4 # (.(.(.(.(.(.(.(.",
"(.(.(.(.(.(.(.(.; 0 b Z J ! 8 % (.(.(.(.(.(.(.(.",
"(.(.(.(.(.(.(.(.: f b Z F Q g : (.(.(.(.(.(.(.(.",
"(.(.(.(.(.(.(.(.-.T P L U ` W E (.(.(.(.(.(.(.(.",
"(.(.(.(.(.(.(.9.z.s.y.r.t.a.u.j.h.(.(.(.(.(.(.(.",
"(.(.(.(.(.(.(.h.c.A.P.~.R.P.n.k.8.(.(.(.(.(.(.(.",
"(.(.(.(.(.(.(.0.v.A.C.C.S.B.v.l.0.(.(.(.(.(.(.(.",
"(.(.(.(.(.(.+ =.s.M.N.V.A.N.x.p.*.. (.(.(.(.(.(.",
"(.(.(.(.(.: X - Y >.,.3.4.,.<.R @   O (.(.(.(.(.",
"(.(.(.(.G s @ = 4 u r a l v b u * O 5 N (.(.(.(.",
"(.(.(.) ^ ~ n i w e e p k k k j d N / ( _ (.(.(.",
"(.(.$.$.O.O.O.X.} ] ] ] } }  .X.O.+.$.$.&.&.(.(.",
"(.(.1 1 < 1 1 1 1 1 1 1 < 1 1 1 1 1 1 1 1 1 (.(.",
"(.(.(.(.(.(.(.(.(.(.(.(.(.(.(.(.(.(.(.(.(.(.(.(.",
"(.(.(.(.(.(.(.(.(.(.(.(.(.(.(.(.(.(.(.(.(.(.(.(."
};
