/* XPM */
static char * 64x64_unknown_xpm[] = {
"64 64 190 2",
"  	c None",
". 	c #989898",
"+ 	c #949494",
"@ 	c #868686",
"# 	c #7A7A7A",
"$ 	c #787878",
"% 	c #777777",
"& 	c #767676",
"* 	c #757575",
"= 	c #747474",
"- 	c #737373",
"; 	c #727272",
"> 	c #717171",
", 	c #707070",
"' 	c #6F6F6F",
") 	c #6E6E6E",
"! 	c #6D6D6D",
"~ 	c #6C6C6C",
"{ 	c #6B6B6B",
"] 	c #6A6A6A",
"^ 	c #696969",
"/ 	c #686868",
"( 	c #676767",
"_ 	c #666666",
": 	c #656565",
"< 	c #646464",
"[ 	c #636363",
"} 	c #626262",
"| 	c #606060",
"1 	c #5F5F5F",
"2 	c #5E5E5E",
"3 	c #5D5D5D",
"4 	c #5C5C5C",
"5 	c #5B5B5B",
"6 	c #5A5A5A",
"7 	c #595959",
"8 	c #585858",
"9 	c #575757",
"0 	c #565656",
"a 	c #555555",
"b 	c #525252",
"c 	c #9B9B9B",
"d 	c #FFFFFF",
"e 	c #FEFEFE",
"f 	c #FDFDFD",
"g 	c #FCFCFC",
"h 	c #FBFBFB",
"i 	c #FAFAFA",
"j 	c #F9F9F9",
"k 	c #F8F8F8",
"l 	c #9A9A9A",
"m 	c #F7F7F7",
"n 	c #F6F6F6",
"o 	c #F5F5F5",
"p 	c #F4F4F4",
"q 	c #F3F3F3",
"r 	c #F2F2F2",
"s 	c #F1F1F1",
"t 	c #F0F0F0",
"u 	c #D1D1D1",
"v 	c #848484",
"w 	c #7D7D7D",
"x 	c #959595",
"y 	c #D3D3D3",
"z 	c #898989",
"A 	c #2B2B2B",
"B 	c #000000",
"C 	c #D8D8D8",
"D 	c #C9C9C9",
"E 	c #404040",
"F 	c #494949",
"G 	c #D4D4D4",
"H 	c #3C3C3C",
"I 	c #070707",
"J 	c #0A0A0A",
"K 	c #010101",
"L 	c #DFDFDF",
"M 	c #131313",
"N 	c #181818",
"O 	c #363636",
"P 	c #505050",
"Q 	c #303030",
"R 	c #080808",
"S 	c #0B0B0B",
"T 	c #545454",
"U 	c #A9A9A9",
"V 	c #939393",
"W 	c #060606",
"X 	c #7C7C7C",
"Y 	c #2E2E2E",
"Z 	c #151515",
"` 	c #BABABA",
" .	c #373737",
"..	c #B6B6B6",
"+.	c #242424",
"@.	c #3A3A3A",
"#.	c #222222",
"$.	c #4E4E4E",
"%.	c #A8A8A8",
"&.	c #B1B1B1",
"*.	c #1B1B1B",
"=.	c #808080",
"-.	c #909090",
";.	c #202020",
">.	c #999999",
",.	c #DCDCDC",
"'.	c #979797",
").	c #BDBDBD",
"!.	c #AFAFAF",
"~.	c #969696",
"{.	c #A3A3A3",
"].	c #ACACAC",
"^.	c #BFBFBF",
"/.	c #ADADAD",
"(.	c #8B8B8B",
"_.	c #A7A7A7",
":.	c #474747",
"<.	c #878787",
"[.	c #323232",
"}.	c #9C9C9C",
"|.	c #A6A6A6",
"1.	c #EFEFEF",
"2.	c #1F1F1F",
"3.	c #AEAEAE",
"4.	c #EEEEEE",
"5.	c #ABABAB",
"6.	c #A4A4A4",
"7.	c #A2A2A2",
"8.	c #DDDDDD",
"9.	c #EDEDED",
"0.	c #CFCFCF",
"a.	c #A5A5A5",
"b.	c #A0A0A0",
"c.	c #9E9E9E",
"d.	c #CECECE",
"e.	c #C8C8C8",
"f.	c #ECECEC",
"g.	c #EAEAEA",
"h.	c #E8E8E8",
"i.	c #E4E4E4",
"j.	c #E1E1E1",
"k.	c #DEDEDE",
"l.	c #818181",
"m.	c #050505",
"n.	c #C7C7C7",
"o.	c #E7E7E7",
"p.	c #8A8A8A",
"q.	c #797979",
"r.	c #EBEBEB",
"s.	c #E9E9E9",
"t.	c #E3E3E3",
"u.	c #E0E0E0",
"v.	c #CDCDCD",
"w.	c #C6C6C6",
"x.	c #E6E6E6",
"y.	c #DADADA",
"z.	c #9D9D9D",
"A.	c #C4C4C4",
"B.	c #DBDBDB",
"C.	c #D9D9D9",
"D.	c #4A4A4A",
"E.	c #C3C3C3",
"F.	c #E5E5E5",
"G.	c #E2E2E2",
"H.	c #4B4B4B",
"I.	c #C1C1C1",
"J.	c #D7D7D7",
"K.	c #B5B5B5",
"L.	c #4D4D4D",
"M.	c #CCCCCC",
"N.	c #D6D6D6",
"O.	c #BBBBBB",
"P.	c #4F4F4F",
"Q.	c #D5D5D5",
"R.	c #C0C0C0",
"S.	c #B7B7B7",
"T.	c #535353",
"U.	c #B9B9B9",
"V.	c #CBCBCB",
"W.	c #B3B3B3",
"X.	c #D0D0D0",
"Y.	c #616161",
"Z.	c #8F8F8F",
"`.	c #8E8E8E",
" +	c #8D8D8D",
".+	c #8C8C8C",
"++	c #888888",
"@+	c #858585",
"#+	c #838383",
"$+	c #828282",
"                                                                                                                                ",
"                  . + @ # # $ $ % & * * = - ; > , , ' ) ! ~ { ] ] ^ / ( _ : < [ [ } } | | 1 2 3 4 5 6 6 7 8 9 0 a b             ",
"                c d d d d d d d d d d d d d d d d d d d d d d d d d d d d d d d d d d e f f g g h h i i j j k k f -             ",
"                l d i i h h h h g g g g f f f f e e e e e e f f g g h h i i j j k k m m n n o o p p q q r r s t n >             ",
"                l d i i i h h h h g g g g f f f f e e e e e e f f g g h h i i j j k k m m n n o o p p q q r r s m >             ",
"                l e i i i i h h h h g g g g g f f f f e e e e d d d f g g h i i i j k k m m n n o o p p q q r r m >             ",
"                l e j i i i i i h h h h g g g g f e d d u l v ; 1 { w x y d d h i i j j k k m n n n o p p q q r k >             ",
"                l e j j j i i i i h h h h g g d r z A B B B B B B B B B B B 7 C d i i j j k k m m n n o o p p q j ;             ",
"                l f j j j j i i i i h h h d D E B B B B B B B B B B B B B B B B F j i i j j k k m m n n o o p p j ;             ",
"                l f k j j j j i i i i h G H B B B B B B B B B B B B B B B B B B B I G i i i j k k m m n n o o p i ;             ",
"                l f k k k j j j i i i d J B B B B B B B B B B B B B B B B B B B B B K L i i i j j k k m n n n o i ;             ",
"                l g k k k k j j j j i d M B B B B B B B B N O P Q R B B B B B B B B B S d h i i j j k k m m n n h ;             ",
"                l g m k k k k j j j j d M B B B B B T U h d d d d d g V W B B B B B B B X f h i i j j k k m m n g ;             ",
"                l g m m k k k k j j j d M B B B = o d h g g g g g f f f h Y B B B B B B B d g h i i j j k k m m g ;             ",
"                l g m m m k k k k k j d M B : h g i h h h h g g g g f f f d Z B B B B B B ` g g h h i i j j k k f ;             ",
"                l h n m m m m k k k k d  .y e i i i i h h h h g g g g f f f ..B B B B B B , d g g h h i i j j k e -             ",
"                l h n n m m m m k k k k d j j j i i i i h h h h g g g g f f d B B B B B B a d f g g h h i i j j e -             ",
"                l i n n n m m m m k k k k j j j j i i i i h h h h g g g g g d +.B B B B B @.d e f f g g h i i j d -             ",
"                l i n n n n m m m m k k k k k j j j i i i i i h h h h g g g d #.B B B B B $.d e e f f g g h h i d -             ",
"                l i o n n n n n m m m m k k k k j j j j i i i i h h h h g g d B B B B B B > d e e e f f g g h h d -             ",
"                l i o o o n n n n m m m m k k k k j j j j i i i i h h h h g %.B B B B B B &.e e e e e f f g g h d -             ",
"                l j o o o o n n n n m m m m k k k k j j j j i i i i h h h d *.B B B B B W d e e e e e e e f g g d -             ",
"                l j p o o o o n n n n m m m m k k k k j j j j i i i i i d ~ B B B B B B =.d f f e e e e e e f f d =             ",
"                l j p p o o o o n n n n n m m m m k k k k j j j j i i d -.B B B B B B ;.d f f f f e e e e e e f d =             ",
"                >.k p p p p o o o o n n n n m m m m k k k k j j j j d c B B B B B B B ,.g g f f f f e e e e e e d =             ",
"                >.k q p p p p o o o o n n n n m m m m k k k k j j e '.B B B B B B B ).f g g g g f f f e e e e e d =             ",
"                >.k q q p p p p o o o o n n n n m m m m k k k k e V B B B B B B B !.f h h g g g g f f f f e e e d =             ",
"                >.m q q q p p p p o o o o n n n n n m m m m k g ~.B B B B B B B {.e h h h h g g g g f f f f e e d =             ",
"                >.n r q q q q p p p p o o o o n n n n m m m j ].B B B B B B B U e i i h h h h g g g g f f f f e d =             ",
"                >.m r r q q q q p p p p o o o o n n n n m m ^.B B B B B B B /.g i i i i h h h h g g g g g f f f d =             ",
"                >.m r r r q q q q p p p p o o o o n n n n j W B B B B B B %.g j j i i i i i h h h h g g g g f f d =             ",
"                l o r r r r q q q q p p p p o o o o n n j : B B B B B B (.f k j j j j i i i i h h h h g g g g f d =             ",
"                l o s r r r r q q q q q p p p p o o o o n B B B B B B 1 d k k k j j j j i i i i h h h h g g g g d =             ",
"                l n s s s r r r r q q q q p p p p o o o _.B B B B B B q m k k k k j j j j i i i i h h h h g g g d =             ",
"                l o s s s s r r r r q q q q p p p p o k 1 B B B B B 9 h m m k k k k j j j j i i i i i h h h g g d =             ",
"                l p t s s s s r r r r q q q q p p p p h :.B B B B B <.n m m m m k k k k j j j j i i i i h h h h d =             ",
"                l p t t s s s s r r r r q q q q p p p g [.B B B B B }.n n m m m m k k k k j j j j i i i i h h h d -             ",
"                l p t t t t s s s s r r r r q q q q p e ;.B B B B B |.n n n m m m m k k k k j j j j i i i i h h d -             ",
"                l q 1.t t t t s s s s r r r r q q q q e 2.B B B B B /.n n n n m m m m k k k k j j j j i i i i i d -             ",
"                l q 1.1.t t t t s s s s r r r r q q q f 2.B B B B B 3.o n n n n n m m m m k k k k j j j j i i i d -             ",
"                l q 1.1.1.t t t t s s s s r r r r q q f 2.B B B B B 3.o o o n n n n m m m m k k k k j j j j i i d -             ",
"                l r 4.1.1.1.t t t t t s s s s r r r r f *.B B B B B 5.o o o o n n n n m m m m k k k k j j j j i d -             ",
"                l r 4.4.1.1.1.1.t t t t s s s s r r r o 3.6.6.6.6.7.8.p o o o o n n n n m m m m k k k k j j j j d -             ",
"                >.r 4.4.4.1.1.1.1.t t t t s s s s r r r r q q q q p p p p o o o o n n n n n m m m m k k k k j j d -             ",
"                >.r 4.4.4.4.1.1.1.1.t t t t s s s s r r r r q q q q p p p p p o p 1.1.t t t t s s s s r r r r q i (             ",
"                >.s 9.4.4.4.4.1.1.1.1.t t t t t s s s s r r r r q q q q p p p p 0.(.%._._._.|.a.6.{.7.b.c.}.l c.b               ",
"                >.s 9.9.4.4.4.4.4.1.1.1.1.t t t t s s t d d d d d d j q q p p p d.e.p q q r t 4.f.g.h.i.j.8.k.l.                ",
"                >.t 9.9.9.9.4.4.4.4.1.1.1.1.t t t t s g B m.W W W W X q q q p p d.n.q q s t 4.f.g.o.i.j.8.8.p.                  ",
"                >.t f.9.9.9.9.4.4.4.4.1.1.1.1.t t t t h B B B B B B q.q q q q p d.n.r s t 4.r.s.o.t.u.,.,.V                     ",
"                >.t f.f.9.9.9.9.4.4.4.4.1.1.1.1.t t t i B B B B B B q.r r q q q v.w.t 1.9.r.s.x.t.u.,.y.z.F                     ",
"                >.t f.f.f.f.9.9.9.4.4.4.4.4.1.1.1.1.t i B B B B B B q.r r r q q v.A.1.9.g.h.x.t.L B.C.a.D.                      ",
"                >.1.r.f.f.f.f.9.9.9.9.4.4.4.4.1.1.1.1.h B B B B B B $ r r r r q v.E.f.g.h.F.G.L B.C 3.H.                        ",
"                >.1.r.r.f.f.f.f.9.9.9.9.4.4.4.4.1.1.1.j B B B B B B $ s r r r r v.I.g.o.F.G.k.B.J.K.L.                          ",
"                >.1.r.r.r.f.f.f.f.9.9.9.9.4.4.4.4.1.1.j B B B B B B $ s s s r r M.^.o.i.j.8.B.N.O.P.                            ",
"                >.4.r.r.r.r.f.f.f.f.f.9.9.9.4.4.4.4.4.i B B B B B B = s s s s r M.).i.j.8.y.Q.R.P                               ",
"                >.4.g.g.r.r.r.r.f.f.f.f.9.9.9.9.4.4.4.t S.` ` ` O.O.Q.t s s s s M.O.u.8.y.Q.A.T.                                ",
"                >.4.g.g.g.r.r.r.r.f.f.f.f.9.9.9.9.4.4.4.4.1.1.1.1.t t t t s s s M.U.8.C.Q.e.0                                   ",
"                >.9.g.g.g.g.r.r.r.r.f.f.f.f.9.9.9.9.4.4.4.4.1.1.1.1.t t t t t s M.K.C.Q.V.6                                     ",
"                >.9.s.g.g.g.g.r.r.r.r.f.f.f.f.f.9.9.9.4.4.4.4.4.1.1.1.1.t t t t M.W.G v.3                                       ",
"                >.9.s.s.g.g.g.g.g.r.r.r.r.f.f.f.f.9.9.9.9.4.4.4.4.1.1.1.1.t t t M.!.X.Y.                                        ",
"                >.9.s.s.s.s.g.g.g.g.r.r.r.r.f.f.f.f.9.9.9.9.4.4.4.4.1.1.1.1.t t V.3.:                                           ",
"                l t f.9.9.9.9.4.4.4.4.1.1.1.1.t s s s s r r r q q q q p p p p o y 0                                             ",
"                ~.U a.>.-.Z.Z.`.`. +.+.+(.(.p.z z ++++<.<.@ @+v v #+#+$+l.l.=.=.,                                               ",
"                                                                                                                                "};
